/* XPM */
static char *_518471915285[] = {
/* columns rows colors chars-per-pixel */
"16 16 90 1 ",
"  c #0E1212",
". c #0F1212",
"X c #111312",
"o c #161513",
"O c #181613",
"+ c #181713",
"@ c #1B1813",
"# c #211A13",
"$ c #271D14",
"% c #2A1E14",
"& c #2A2115",
"* c #553119",
"= c #52371A",
"- c #683A1C",
"; c #763F1B",
": c #773F1B",
"> c #723F1D",
", c #78401C",
"< c #79401C",
"1 c #79411C",
"2 c #7A411C",
"3 c #7D431D",
"4 c #7E441F",
"5 c #85471F",
"6 c #86481F",
"7 c #864820",
"8 c #884920",
"9 c #894920",
"0 c #8C4A20",
"q c #8D4B21",
"w c #8E4C21",
"e c #8F4C21",
"r c #904C21",
"t c #904D21",
"y c #914D21",
"u c #914E21",
"i c #914F21",
"p c #924F22",
"a c #845721",
"s c #865922",
"d c #9E5E23",
"f c #A05B24",
"g c #A25B24",
"h c #A25C24",
"j c #A25D24",
"k c #A35D24",
"l c #A35D25",
"z c #A45D24",
"x c #A55E25",
"c c #A55F25",
"v c #A65F25",
"b c #956324",
"n c #976224",
"m c #A16124",
"M c #A16224",
"N c #A46125",
"B c #A56125",
"V c #A66225",
"C c #AE6327",
"Z c #AF6327",
"A c #A96526",
"S c #AA6426",
"D c #A96626",
"F c #AF6427",
"G c #AC6626",
"H c #A16925",
"J c #A96826",
"K c #B36B28",
"L c #B46828",
"P c #B46928",
"I c #B76929",
"U c #B36E28",
"Y c #B86A29",
"T c #B96A29",
"R c #B86B29",
"E c #B86C29",
"W c #B07227",
"Q c #B47228",
"! c #B27428",
"~ c #B67528",
"^ c #B87129",
"/ c #B97129",
"( c #B87829",
") c #B97929",
"_ c #BA7929",
"` c #BA7A29",
"' c #BB7A29",
"] c #BB7B29",
"[ c #BC7B29",
"{ c None",
/* pixels */
"{{{{{{{{{{{{{{{{",
"{{Y{{{{{{{{{{<<{",
"{{YYY{{{{{{{3<3{",
"{{YYPP{{{{{<<<<{",
"{{PKK~MzVV63<,;{",
"{{~~(`MhzVprw85{",
"{{```(MhVVrrwrr{",
"{{!`(`JAGArrw08{",
"{&=W``/YYGrrr*%{",
"{XOn``/YYZrr7% X",
"{OOa_`/PTZrr3#o{",
"{nsH``/YYZpr7->{",
"{{]``_Sghhrwwrr{",
"{{{``_MgzVprrw{{",
"{{{{__MzVVpw{{{{",
"{{{{{{nhzV{{{{{{"
};
