/* XPM */
static char *_518472012816[] = {
/* columns rows colors chars-per-pixel */
"32 32 141 2 ",
"   c #0C1011",
".  c #0D1112",
"X  c #0F1212",
"o  c #101212",
"O  c #101312",
"+  c #111312",
"@  c #121312",
"#  c #131412",
"$  c #151512",
"%  c #161512",
"&  c #171613",
"*  c #181713",
"=  c #1A1713",
"-  c #1D1813",
";  c #221A13",
":  c #2D1F14",
">  c #362316",
",  c #3D2616",
"<  c #3E2717",
"1  c #3E2917",
"2  c #422816",
"3  c #492B16",
"4  c #442D18",
"5  c #482B18",
"6  c #4E3419",
"7  c #4C351A",
"8  c #54381A",
"9  c #63371A",
"0  c #63381B",
"q  c #6D3A19",
"w  c #6F3B19",
"e  c #6F3B1A",
"r  c #703C1A",
"t  c #713C1A",
"y  c #723D1A",
"u  c #733D1A",
"i  c #753E1B",
"p  c #753F1B",
"a  c #763F1B",
"s  c #62401C",
"d  c #6C451D",
"f  c #6D481E",
"g  c #75401E",
"h  c #78401C",
"j  c #79401C",
"k  c #79411C",
"l  c #78411D",
"z  c #7A411C",
"x  c #7A421D",
"c  c #7D421D",
"v  c #7E431D",
"b  c #7F441E",
"n  c #774C1F",
"m  c #84461F",
"M  c #85471F",
"N  c #86471F",
"B  c #86481F",
"V  c #8B4A20",
"C  c #8C4A20",
"Z  c #8D4B20",
"A  c #8D4B21",
"S  c #8E4B21",
"D  c #8E4C21",
"F  c #8F4C21",
"G  c #8C4E20",
"H  c #904C21",
"J  c #904D21",
"K  c #914D21",
"L  c #875320",
"P  c #8F5120",
"I  c #8E5E23",
"U  c #905121",
"Y  c #915121",
"T  c #965422",
"R  c #985622",
"E  c #915C22",
"W  c #995923",
"Q  c #A15A24",
"!  c #A45E25",
"~  c #A55F25",
"^  c #A65F25",
"/  c #A95F26",
"(  c #A16224",
")  c #A76625",
"_  c #A86225",
"`  c #A96026",
"'  c #AA6026",
"]  c #AB6126",
"[  c #A96326",
"{  c #AB6226",
"}  c #AC6226",
"|  c #AD6327",
" . c #AA6426",
".. c #A86626",
"X. c #A86726",
"o. c #A96726",
"O. c #AE6727",
"+. c #AF6727",
"@. c #A96926",
"#. c #AE6927",
"$. c #AA6C26",
"%. c #AF6D27",
"&. c #AC6E26",
"*. c #AD6E27",
"=. c #B06627",
"-. c #B16627",
";. c #B06C27",
":. c #B06D27",
">. c #B26628",
",. c #B36728",
"<. c #B46728",
"1. c #B66929",
"2. c #B76929",
"3. c #B76A29",
"4. c #B26E28",
"5. c #B86A29",
"6. c #B96A29",
"7. c #B86B29",
"8. c #B96B29",
"9. c #B86C29",
"0. c #B96D29",
"q. c #B37128",
"w. c #B37228",
"e. c #B27328",
"r. c #B37428",
"t. c #B47528",
"y. c #B67528",
"u. c #B77529",
"i. c #B67628",
"p. c #B77729",
"a. c #B97629",
"s. c #B97729",
"d. c #B77829",
"f. c #B87829",
"g. c #B97829",
"h. c #B87929",
"j. c #B97929",
"k. c #BA7929",
"l. c #BA7A29",
"z. c #BB7A29",
"x. c None",
/* pixels */
"x.x.x.x.x.x.x.x.x.x.x.x.x.x.x.x.x.x.x.x.x.x.x.x.x.x.x.x.x.x.x.x.",
"x.x.x.2.2.x.x.x.x.x.x.x.x.x.x.x.x.x.x.x.x.x.x.x.x.x.x.x.z x.x.x.",
"x.x.x.2.5.2.x.x.x.x.x.x.x.x.x.x.x.x.x.x.x.x.x.x.x.x.z z z z x.x.",
"x.x.x.2.5.5.2.x.x.x.x.x.x.x.x.x.x.x.x.x.x.x.x.x.x.z z z z z x.x.",
"x.x.x.2.5.5.5.5.x.x.x.x.x.x.x.x.x.x.x.x.x.x.x.x.z z z z z z x.x.",
"x.x.x.2.5.5.5.5.2.2.x.x.x.x.x.x.x.x.x.x.x.x.x.z z z z z z z x.x.",
"x.x.x.2.5.5.5.5.5.5.5.x.x.x.x.x.x.x.x.x.x.x.z z z z z z z z x.x.",
"x.x.x.2.5.5.5.5.5.5.2.>.x.x.x.x.x.x.x.x.q h z z z z z z z z x.x.",
"x.x.x.2.5.5.2.<.=.+.#.;.@.P ! ! ! ! ` ( c i y q y p h h h h x.x.",
"x.x.x.>.=.+.#.;.q.y.h.h.&.Y _ ^ ! _ ` X.F F V B c p y q y p x.x.",
"x.x.x.%.y.u.s.s.h.h.h.z.&.Y ^ ^ ! _ X.X.F F F H S F S N c z x.x.",
"x.x.x.h.h.h.h.z.z.z.h.h.%.Y ^ ^ ! ! ` X.F F F F H F S F H H x.x.",
"x.x.x.h.h.h.h.h.h.h.h.z.%.Y ! ` / ! X.X.F F F F F F F F H F x.x.",
"x.x.x.s.h.h.z.h.h.z.h.z.%.Y ! ! ! ` ` X.F F F F F F F F F F x.x.",
"x.x.x.h.z.h.h.h.h.h.h.z.&.P _ _ ^ / ` X.F F F F F F F F F H x.x.",
"x.x.x.d.w.s.h.h.z.s.z.h.e.) #.;.;.;.4.X.F F F F F F F V V H x.x.",
"x.x.x.7 4 L h.h.h.h.h.z.h.8.8.8.9.4.8.] F F F F F H N 3 > < x.x.",
"x.x.+ X X 1 &.z.z.z.h.h.s.8.5.5.6.6.5./ F F F F F H 9 % X X x.x.",
"x.x.X # # = E z.s.h.h.h.s.5.5.5.5.5.5./ F F F F F B 3 X + + + x.",
"x.+ # X # # n z.z.h.h.h.s.8.5.5.5.5.8./ F F F F H B : X + + + x.",
"x.x.+ + + X 0 h.h.s.h.h.s.5.5.5.5.5.8./ H H F F F b ; X + # + x.",
"x.x.% * + X 8 h.h.z.h.z.s.5.5.5.5.5.5./ H H F F F z = X # % x.x.",
"x.x.x.I f 6 d s.h.z.h.z.s.5.5.5.5.5.8./ H F F F H x < 5 0 g x.x.",
"x.x.x.h.h.u.y.z.h.h.h.s.s.8.5.8.8.8.8.] F F F F F F V H H H x.x.",
"x.x.x.h.h.z.h.h.h.h.z.h.s.] ` ` ] ] ] Q F F F F F F F F F x.x.x.",
"x.x.x.x.h.h.h.z.z.h.s.z.%.F T T T T R W F F F F F F F F F x.x.x.",
"x.x.x.x.h.h.h.z.z.h.h.h.&.Y _ _ _ ! X.X.F F F F F F F F x.x.x.x.",
"x.x.x.x.x.x.s.s.h.h.z.z.&.Y ! ! ` ! ` X.F F F F F F x.x.x.x.x.x.",
"x.x.x.x.x.x.x.x.h.h.h.z.%.Y _ ! ! _ ` X.F F F F F x.x.x.x.x.x.x.",
"x.x.x.x.x.x.x.x.x.x.h.h.%.Y ! ` ` ! ` X.F F F x.x.x.x.x.x.x.x.x.",
"x.x.x.x.x.x.x.x.x.x.x.h.&.P ` ! ! ! X.X.F x.x.x.x.x.x.x.x.x.x.x.",
"x.x.x.x.x.x.x.x.x.x.x.x.x.x.x.x.x.x.x.x.x.x.x.x.x.x.x.x.x.x.x.x."
};
