/* XPM */
static char *_518472020032[] = {
/* columns rows colors chars-per-pixel */
"64 64 243 2 ",
"   c #0F1212",
".  c #101212",
"X  c #101312",
"o  c #111312",
"O  c #121312",
"+  c #131412",
"@  c #141412",
"#  c #151412",
"$  c #151512",
"%  c #171512",
"&  c #151612",
"*  c #171613",
"=  c #191612",
"-  c #181613",
";  c #191613",
":  c #191713",
">  c #1B1713",
",  c #1C1712",
"<  c #191813",
"1  c #1C1812",
"2  c #1D1813",
"3  c #1C1913",
"4  c #211912",
"5  c #201913",
"6  c #221A13",
"7  c #231A14",
"8  c #241B14",
"9  c #271E14",
"0  c #2A1D13",
"q  c #2E2015",
"w  c #312115",
"e  c #352214",
"r  c #382314",
"t  c #3D2716",
"y  c #3F2C17",
"u  c #422614",
"i  c #422917",
"p  c #452915",
"a  c #472A16",
"s  c #4E2D16",
"d  c #4E2E19",
"f  c #502D15",
"g  c #512F18",
"h  c #593116",
"j  c #593117",
"k  c #523219",
"l  c #593218",
"z  c #583219",
"x  c #5B391A",
"c  c #623416",
"v  c #633517",
"b  c #643517",
"n  c #653617",
"m  c #663717",
"M  c #673717",
"N  c #673718",
"B  c #683718",
"V  c #67381A",
"C  c #673B1B",
"Z  c #653D1B",
"A  c #693818",
"S  c #6A3918",
"D  c #6B3919",
"F  c #693A1A",
"G  c #6B3A1B",
"H  c #6D3A19",
"J  c #6E3B19",
"K  c #6D3A1A",
"L  c #6F3B1A",
"P  c #6F3D1D",
"I  c #6F3F1C",
"U  c #703C1A",
"Y  c #713C1A",
"T  c #713D1B",
"R  c #733D1A",
"E  c #743E1B",
"W  c #753E1B",
"Q  c #763E1B",
"!  c #763F1B",
"~  c #773F1B",
"^  c #733F1D",
"/  c #65441D",
"(  c #6C411C",
")  c #78401B",
"_  c #78401C",
"`  c #79401C",
"'  c #79411C",
"]  c #7A411C",
"[  c #7A421C",
"{  c #7B421C",
"}  c #7A421D",
"|  c #7C421D",
" . c #7D431D",
".. c #7E431D",
"X. c #7F431D",
"o. c #7E441D",
"O. c #734A1E",
"+. c #75481E",
"@. c #7F4E1F",
"#. c #82461E",
"$. c #83471E",
"%. c #84461E",
"&. c #84471E",
"*. c #85471F",
"=. c #84481E",
"-. c #87481F",
";. c #874C1F",
":. c #88481F",
">. c #89481F",
",. c #894E1F",
"<. c #8B501F",
"1. c #884920",
"2. c #894920",
"3. c #8A4920",
"4. c #8A4A20",
"5. c #8B4A20",
"6. c #8C4A20",
"7. c #8C4B20",
"8. c #8D4B20",
"9. c #8D4B21",
"0. c #8E4B21",
"q. c #8C4C20",
"w. c #8E4C21",
"e. c #8F4C21",
"r. c #904C21",
"t. c #904D21",
"y. c #914D21",
"u. c #855220",
"i. c #885220",
"p. c #8C5120",
"a. c #8A5621",
"s. c #8D5721",
"d. c #8F5721",
"f. c #8E5E23",
"g. c #975222",
"h. c #975522",
"j. c #975622",
"k. c #995622",
"l. c #9D5624",
"z. c #9D5724",
"x. c #9E5724",
"c. c #965A22",
"v. c #965D23",
"b. c #9B5823",
"n. c #9C5823",
"m. c #9C5A23",
"M. c #9D5B24",
"N. c #9E5C24",
"B. c #A15C24",
"V. c #A25D24",
"C. c #A35D24",
"Z. c #A15F24",
"A. c #A55D25",
"S. c #A55E25",
"D. c #A65E25",
"F. c #A65F25",
"G. c #A75F25",
"H. c #946123",
"J. c #9F6524",
"K. c #A06324",
"L. c #A36324",
"P. c #A56124",
"I. c #A46025",
"U. c #A76025",
"Y. c #A66125",
"T. c #A76125",
"R. c #A06424",
"E. c #A86125",
"W. c #A96125",
"Q. c #A86325",
"!. c #A96326",
"~. c #AA6226",
"^. c #AB6226",
"/. c #AC6326",
"(. c #AD6326",
"). c #A86425",
"_. c #A86525",
"`. c #A96525",
"'. c #AA6426",
"]. c #AA6526",
"[. c #AE6427",
"{. c #AF6527",
"}. c #A76925",
"|. c #A86A25",
" X c #AB6826",
".X c #A96B26",
"XX c #AC6826",
"oX c #AC6926",
"OX c #AC6A26",
"+X c #AD6B26",
"@X c #AB6C26",
"#X c #B06527",
"$X c #B16627",
"%X c #B26627",
"&X c #B06E27",
"*X c #B06F27",
"=X c #B16F27",
"-X c #B26728",
";X c #B36728",
":X c #B46828",
">X c #B56828",
",X c #B66928",
"<X c #B66929",
"1X c #B76929",
"2X c #B76A29",
"3X c #B86A29",
"4X c #B96A29",
"5X c #B96B29",
"6X c #B86C29",
"7X c #B86D29",
"8X c #B07127",
"9X c #B17127",
"0X c #B27027",
"qX c #B17227",
"wX c #B27327",
"eX c #B17328",
"rX c #B37228",
"tX c #B27328",
"yX c #B47228",
"uX c #B47328",
"iX c #B57428",
"pX c #B47528",
"aX c #B57528",
"sX c #B67528",
"dX c #B77529",
"fX c #B57628",
"gX c #B57728",
"hX c #B67628",
"jX c #B67728",
"kX c #B77629",
"lX c #B77729",
"zX c #B97529",
"xX c #B87629",
"cX c #B97629",
"vX c #B87729",
"bX c #B77829",
"nX c #B87829",
"mX c #B87929",
"MX c #B97929",
"NX c #BA7929",
"BX c #BA7A29",
"VX c #BB7A29",
"CX c None",
/* pixels */
"CXCXCXCXCXCXCXCXCXCXCXCXCXCXCXCXCXCXCXCXCXCXCXCXCXCXCXCXCXCXCXCXCXCXCXCXCXCXCXCXCXCXCXCXCXCXCXCXCXCXCXCXCXCXCXCXCXCXCXCXCXCXCXCX",
"CXCXCXCXCXCXCXCXCXCXCXCXCXCXCXCXCXCXCXCXCXCXCXCXCXCXCXCXCXCXCXCXCXCXCXCXCXCXCXCXCXCXCXCXCXCXCXCXCXCXCXCXCXCXCXCXCXCXCXCXCXCXCXCX",
"CXCXCXCXCXCX<X<X<XCXCXCXCXCXCXCXCXCXCXCXCXCXCXCXCXCXCXCXCXCXCXCXCXCXCXCXCXCXCXCXCXCXCXCXCXCXCXCXCXCXCXCXCXCXCXCX} ~ ~ CXCXCXCXCX",
"CXCXCXCXCXCX<X3X3X<XCXCXCXCXCXCXCXCXCXCXCXCXCXCXCXCXCXCXCXCXCXCXCXCXCXCXCXCXCXCXCXCXCXCXCXCXCXCXCXCXCXCXCXCXCX} ) ....CXCXCXCXCX",
"CXCXCXCXCXCX<X3X3X3X<X%XCXCXCXCXCXCXCXCXCXCXCXCXCXCXCXCXCXCXCXCXCXCXCXCXCXCXCXCXCXCXCXCXCXCXCXCXCXCXCXCXCXCX} ) } ) } CXCXCXCXCX",
"CXCXCXCXCXCX<X3X3X3X3X3X;XCXCXCXCXCXCXCXCXCXCXCXCXCXCXCXCXCXCXCXCXCXCXCXCXCXCXCXCXCXCXCXCXCXCXCXCXCXCXCX~ ..~ ..) ..) CXCXCXCXCX",
"CXCXCXCXCXCX<X3X3X3X3X3X<X<XCXCXCXCXCXCXCXCXCXCXCXCXCXCXCXCXCXCXCXCXCXCXCXCXCXCXCXCXCXCXCXCXCXCXCXCXCX} } ~ } ~ ..~ ) CXCXCXCXCX",
"CXCXCXCXCXCX<X3X3X3X3X3X3X3X<XCXCXCXCXCXCXCXCXCXCXCXCXCXCXCXCXCXCXCXCXCXCXCXCXCXCXCXCXCXCXCXCXCXCXCX} ) ) ..) ..~ ..} CXCXCXCXCX",
"CXCXCXCXCXCX<X3X3X3X3X3X3X3X3X3XCXCXCXCXCXCXCXCXCXCXCXCXCXCXCXCXCXCXCXCXCXCXCXCXCXCXCXCXCXCXCXCXCX~ } ~ } ~ ..) } ) ) CXCXCXCXCX",
"CXCXCXCXCXCX<X3X3X3X3X3X3X3X3X3X<X<XCXCXCXCXCXCXCXCXCXCXCXCXCXCXCXCXCXCXCXCXCXCXCXCXCXCXCXCXCXCX} ..) ..) ..~ } ~ ....CXCXCXCXCX",
"CXCXCXCXCXCX<X3X3X3X3X3X3X3X3X3X3X3X<XCXCXCXCXCXCXCXCXCXCXCXCXCXCXCXCXCXCXCXCXCXCXCXCXCXCXCX~ ~ ) ....~ ..~ ..~ ..) ..CXCXCXCXCX",
"CXCXCXCXCXCX<X3X3X3X3X3X3X3X3X3X3X3X3X<XCXCXCXCXCXCXCXCXCXCXCXCXCXCXCXCXCXCXCXCXCXCXCXCXCX~ } ..} ) ) } ~ ..~ ..~ } ~ CXCXCXCXCX",
"CXCXCXCXCXCX<X3X3X3X3X3X3X3X3X3X3X3X3X3X<XCXCXCXCXCXCXCXCXCXCXCXCXCXCXCXCXCXCXCXCXCXCXCX} ) ..~ ) } ) ....~ ..) ..) ..CXCXCXCXCX",
"CXCXCXCXCXCX<X3X3X3X3X3X3X3X3X3X3X3X3X3X3X<XCXCXCXCXCXCXCXCXCXCXCXCXCXCXCXCXCXCXCXCXCX} ) } ) } ..~ ..~ ) } ~ } ~ } ) CXCXCXCXCX",
"CXCXCXCXCXCX<X3X3X3X3X3X3X3X3X3X3X3X3X3X3X3X3X<XCXCXCXCXCXCXCXCXCXCXCXCXCXCXCXCXCX} ) ) ..) ..~ ~ ..~ } ..~ } ~ } ) ) CXCXCXCXCX",
"CXCXCXCXCXCX<X3X3X3X3X3X3X3X3X3X3X3X3X3X3X3X>X;X~.CXCXCXCXCXCXCXCXCXCXCXCXCXCXCXb U Q } ~ } ~ ..} ~ ..) ~ ..) ..~ ..} CXCXCXCXCX",
"CXCXCXCXCXCX<X3X3X3X3X3X3X3X<X3X3X3X>X%X^.Q.Q.Q.}.P.} h.Z.B.B.B.B.B.B.Z.B.P.tXp.J B c b B J Q } ) ) ..~ ) ..) ..) } ) CXCXCXCXCX",
"CXCXCXCXCXCX<X3X3X3X3X3X3X3X;X%X^.Q.Q.`.[.=XuXpXVX}.o.n.G.F.F.F.F.F.F.F.F.'.pXN.e.:.*.} U N c b B U Q ~ } ) } ) ..) ..CXCXCXCXCX",
"CXCXCXCXCXCX<X3X3X<X-X%X^.Q.G.`.oX=XpXnXnXVXnXnXVX}.o.n.G.F.F.F.F.F.F.F.F.~.vXN.0.e.e.r.e.0.*.} U B N c B J Q Q ) } ~ CXCXCXCXCX",
"CXCXCXCXCXCX%X[.Q.Q.P.`.oX=XuXnXnXnXnXnXnXnXnXVXVX}.o.b.G.F.F.F.F.F.F.F.I.~.pXN.0.e.e.e.e.0.e.e.0.4.1...U A c c b J U CXCXCXCXCX",
"CXCXCXCXCXCXP.`.+XuXhXnXBXnXBXnXBXnXBXnXVXVXnXnXVX}.o.b.F.F.F.F.F.F.F.F.G.~.pXN.0.e.e.e.e.e.e.e.r.e.r.r.e.0.:...Q A b CXCXCXCXCX",
"CXCXCXCXCXCXpXnXnXBXnXnXnXBXnXBXnXBXnXBXnXnXnXVXVX}.o.b.G.F.F.F.F.F.F.F.G.Q.cXN.0.e.e.e.e.e.e.e.e.e.e.e.e.e.e.r.e.0.4.CXCXCXCXCX",
"CXCXCXCXCXCXbXnXBXnXBXnXBXnXBXnXBXnXBXnXBXnXBXnXVX}.o.n.G.F.F.F.F.F.F.F.G.Q.pXN.0.e.e.e.e.e.e.e.e.e.e.e.e.e.e.e.e.e.r.CXCXCXCXCX",
"CXCXCXCXCXCXnXnXnXBXnXBXnXBXnXBXnXBXnXBXnXBXnXBXVX}.o.n.G.F.F.F.F.F.F.F.G.`.cXN.0.e.e.e.e.e.e.e.e.e.e.e.e.e.e.e.e.e.r.CXCXCXCXCX",
"CXCXCXCXCXCXbXBXnXBXnXBXBXnXBXnXBXnXBXnXBXnXBXnXVX}.o.m.G.Z.F.F.F.F.F.F.F.~.dXN.0.e.e.e.e.e.e.e.e.e.e.e.e.e.e.e.e.e.e.CXCXCXCXCX",
"CXCXCXCXCXCXbXnXBXnXBXnXnXBXnXBXnXBXnXBXnXBXnXBXVX.X..m.G.G.F.F.F.F.F.F.F.~.dXN.0.e.e.e.e.e.e.e.e.e.e.e.e.e.e.e.e.e.e.CXCXCXCXCX",
"CXCXCXCXCXCXbXBXnXBXnXBXBXnXBXnXBXnXBXnXBXnXBXnXnX}.o.m.G.G.G.Z.F.F.F.F.I.'.dXN.0.e.e.e.e.e.e.e.e.e.e.e.e.e.e.e.e.e.e.CXCXCXCXCX",
"CXCXCXCXCXCXbXnXBXnXBXnXnXBXnXBXnXBXnXBXnXBXnXBXnX}...n.G.G.G.G.F.F.F.F.F.'.dXN.0.e.e.e.e.e.e.e.e.e.e.e.e.e.e.e.e.e.e.CXCXCXCXCX",
"CXCXCXCXCXCXnXBXnXBXBXnXBXnXBXnXBXnXBXnXBXnXBXnXVX|...b.G.G.G.G.F.F.F.F.F.~.dXN.0.e.e.e.e.e.e.e.e.e.e.e.e.e.e.e.e.e.e.CXCXCXCXCX",
"CXCXCXCXCXCXnXnXBXnXnXBXnXBXnXBXnXBXnXBXnXBXnXBXnX|...m.G.G.G.G.F.F.F.F.F.~.dXN.e.e.e.e.e.e.e.e.e.e.e.e.e.e.e.e.e.e.e.CXCXCXCXCX",
"CXCXCXCXCXCXnXnXnXnXnXnXBXnXBXnXBXnXBXnXBXnXBXnXVX+X<.Z.`.`.'.'.'.'.~.'.[.}.bXN.e.e.e.e.e.e.e.e.e.e.e.e.r.e.e.e.e.e.e.CXCXCXCXCX",
"CXCXCXCXCXCXnXVXbXwXjXnXnXBXnXBXnXBXnXBXnXBXnXBXnXnXhXpXpXcXcXcXvXvXvXvXvXdXbXM.e.e.e.e.e.e.e.e.e.e.e.e.r.r.:.:.0.r.r.CXCXCXCXCX",
"CXCXCXCXCXCXH.+.x V <.pXBXnXBXnXnXBXnXBXnXBXnXBXnXcX6X6X6X6X3X3X3X6X6X6X6X6X6Xz.0.e.e.e.e.e.e.e.e.e.e.e.e.4.J s a l ^ CXCXCXCXCX",
"CXCXCXCXCXCX2 @   = g b.nXBXnXBXBXnXBXnXBXnXBXnXnXcX3X3X3X3X3X3X3X3X3X3X3X3X3Xz.0.e.e.e.e.e.e.e.e.e.e.e.0.Q u % . . < % CXCXCXCX",
"CXCXCXCXX X X X +   3 ( pXnXBXnXnXBXnXBXnXBXnXBXVXcX3X3X3X3X3X3X3X3X3X3X3X3X3Xz.0.e.e.e.e.e.e.e.e.e.e.e.4.j 3   + . +   . CXCXCX",
"CXCXCXCXX X X X   + . i R.BXnXVXBXnXBXnXBXnXBXnXnXcX3X3X3X3X3X3X3X3X3X3X3X3X3Xz.0.e.e.e.e.e.e.e.e.e.e.r.o.r . . . +   + + CXCXCX",
"CXCXCXX X @ X @ +     5 i.nXnXnXnXBXnXBXVXnXnXBXnXcX3X3X3X3X3X3X3X3X3X3X3X3X3Xz.0.e.e.e.e.e.e.e.e.e.0.0.K 5   +   +   + . + CXCX",
"CXCXCX@ X X X X   + + # ( pXVXnXBXnXBXnXnXnXVXnXVXcX3X3X3X3X3X3X3X3X3X3X3X3X1Xz.0.e.e.e.e.e.e.e.e.e.0.0.l # + . +   +   + . CXCX",
"CXCXCXX X @ X X X X +   k wXVXVXnXBXnXBXnXVXnXVXcXcX3X3X3X3X3X3X3X3X3X3X3X3X3Xz.0.e.e.e.e.e.e.e.e.e.e.4.p . . +   +   + . + CXCX",
"CXCXCXX X X @ X X X +   t .XBXnXBXnXBXnXnXVXnXnXnXcX3X3X3X3X3X3X3X3X3X3X3X3X1Xl.0.e.e.e.e.e.e.e.e.e.r.1.e . + . +   + . + . CXCX",
"CXCXCX@ X @ X X   +     q J.VXnXnXBXnXBXnXBXnXBXVXcX3X3X3X3X3X3X3X3X3X3X3X3X3Xl.r.r.0.r.e.e.e.e.0.r.0.#.0   +     + +   +   CXCX",
"CXCXCXX X X @ X +   +   6 v.VXnXBXnXBXnXBXnXBXnXnXcX3X3X3X3X3X3X3X3X3X3X3X3X3Xz.0.r.r.0.e.e.e.e.r.0.r.} 6     + +     +   + CXCX",
"CXCXCXCXX X X X + +   + 3 s.VXnXnXBXnXBXnXBXnXBXnXcX3X3X3X3X3X3X3X3X3X3X3X3X1Xl.0.r.0.r.e.e.e.e.e.e.r.( 3 + +     + .   + CXCXCX",
"CXCXCXCXCX# ; X   .   . = u.VXnXBXnXBXnXBXnXBXnXVXzX3X3X3X3X3X3X3X3X3X3X3X3X3Xl.0.0.r.0.e.e.e.e.e.e.r.A =   + +     % % CXCXCXCX",
"CXCXCXCXCXCXv./ y q & + % @.VXBXnXBXnXBXnXBXnXBXnXzX3X3X3X3X3X3X3X3X3X3X3X3X3Xz.0.0.e.e.e.e.e.e.e.e.r.V % + % 3 w d P CXCXCXCXCX",
"CXCXCXCXCXCXnXnXpXR.a.O.Z c.nXnXBXnXBXnXBXnXBXnXnXcX3X3X3X3X3X3X3X3X3X3X3X3X1Xl.0.r.e.e.e.e.e.e.e.e.r.U s z F [ 4.r.r.CXCXCXCXCX",
"CXCXCXCXCXCXbXnXBXBXVXBXhXpXnXBXnXBXnXBXnXBXnXBXnXcX3X3X3X3X3X3X3X3X3X3X3X3X3Xl.0.e.e.e.e.e.e.e.e.e.r.0.e.e.r.e.e.e.e.CXCXCXCXCX",
"CXCXCXCXCXCXbXBXnXBXnXnXnXbXBXnXBXnXBXnXBXnXBXnXnXcX3X3X3X3X3X3X3X3X3X3X3X3X3Xz.0.e.e.e.e.e.e.e.e.e.e.e.e.e.e.e.e.e.e.CXCXCXCXCX",
"CXCXCXCXCXCXnXnXBXnXBXnXBXnXBXnXnXBXnXBXnXBXnXBXnXcX3X6X3X3X3X3X6X<X3X<X3X3X3Xn.0.e.e.e.e.e.e.e.e.e.e.e.e.e.e.e.e.e.0.CXCXCXCXCX",
"CXCXCXCXCXCXbXnXnXBXnXBXnXBXnXBXBXnXBXnXBXnXBXnXBXpXG.G.B.G.G.G.G.G.G.G.F.F.F.h.e.e.e.e.e.e.e.e.e.e.e.e.e.e.e.e.e.e.0.CXCXCXCXCX",
"CXCXCXCXCXCXCXbXBXnXBXnXBXnXBXnXnXBXnXBXnXBXnXBXnX}.o.%.*.*.%.1.%.%.%.%.1.1.4.4.e.e.e.e.e.e.e.e.e.e.e.e.e.e.e.e.e.e.CXCXCXCXCXCX",
"CXCXCXCXCXCXCXbXnXBXnXBXnXBXnXBXBXnXBXnXBXnXBXnXnX}.o.k.Z.B.B.Z.Z.Z.A.B.Z.Z.tXn.0.e.e.e.e.e.e.e.e.e.e.e.e.e.e.e.e.0.CXCXCXCXCXCX",
"CXCXCXCXCXCXCXCXbXBXnXBXBXnXBXnXnXBXnXBXnXBXnXBXVX|.o.m.G.G.G.Z.G.G.G.G.G.I.nXN.0.e.e.e.e.e.e.e.e.e.e.e.e.e.e.e.0.CXCXCXCXCXCXCX",
"CXCXCXCXCXCXCXCXCXCXbXnXnXBXnXBXBXnXBXnXBXnXBXnXnX|...n.G.G.G.G.G.G.G.Z.G.~.pXZ.0.e.e.e.e.e.e.e.e.e.e.e.e.e.e.CXCXCXCXCXCXCXCXCX",
"CXCXCXCXCXCXCXCXCXCXCXbXnXnXBXnXnXBXnXBXnXBXnXBXVX|.o.m.G.G.G.G.G.G.G.G.G.Q.pXN.0.e.e.e.e.e.e.e.e.e.e.e.e.0.CXCXCXCXCXCXCXCXCXCX",
"CXCXCXCXCXCXCXCXCXCXCXCXCXbXnXBXBXnXBXnXBXnXBXnXBX|.o.m.G.G.Z.G.G.Z.G.G.G.`.cXN.0.e.e.e.e.e.e.e.e.e.e.e.CXCXCXCXCXCXCXCXCXCXCXCX",
"CXCXCXCXCXCXCXCXCXCXCXCXCXCXCXbXnXnXnXBXnXBXnXBXnX}.o.n.G.F.F.F.G.G.F.F.F.~.dXN.0.e.e.e.e.e.e.e.e.0.CXCXCXCXCXCXCXCXCXCXCXCXCXCX",
"CXCXCXCXCXCXCXCXCXCXCXCXCXCXCXCXCXbXBXnXBXnXBXnXnX}.o.n.G.F.F.F.G.Z.F.F.F.~.dXN.0.e.e.e.e.e.e.e.CXCXCXCXCXCXCXCXCXCXCXCXCXCXCXCX",
"CXCXCXCXCXCXCXCXCXCXCXCXCXCXCXCXCXCXbXnXnXBXnXBXVX|.o.n.G.F.F.F.G.G.Z.F.I.!.dXN.0.e.e.e.e.e.4.CXCXCXCXCXCXCXCXCXCXCXCXCXCXCXCXCX",
"CXCXCXCXCXCXCXCXCXCXCXCXCXCXCXCXCXCXCXCXnXnXBXnXnX|...z.G.F.F.F.G.G.F.F.I.'.dXN.0.e.e.e.0.CXCXCXCXCXCXCXCXCXCXCXCXCXCXCXCXCXCXCX",
"CXCXCXCXCXCXCXCXCXCXCXCXCXCXCXCXCXCXCXCXCXCXnXnXVX|.o.n.G.F.F.F.F.F.F.F.F.'.dXN.0.e.0.CXCXCXCXCXCXCXCXCXCXCXCXCXCXCXCXCXCXCXCXCX",
"CXCXCXCXCXCXCXCXCXCXCXCXCXCXCXCXCXCXCXCXCXCXCXCXnX|.o.n.G.F.F.F.F.F.F.F.F.~.dXN.0.CXCXCXCXCXCXCXCXCXCXCXCXCXCXCXCXCXCXCXCXCXCXCX",
"CXCXCXCXCXCXCXCXCXCXCXCXCXCXCXCXCXCXCXCXCXCXCXCXCXCX..h.Z.B.B.Z.B.B.Z.B.Z.P.eXCXCXCXCXCXCXCXCXCXCXCXCXCXCXCXCXCXCXCXCXCXCXCXCXCX",
"CXCXCXCXCXCXCXCXCXCXCXCXCXCXCXCXCXCXCXCXCXCXCXCXCXCXCXCXCXCXCXCXCXCXCXCXCXCXCXCXCXCXCXCXCXCXCXCXCXCXCXCXCXCXCXCXCXCXCXCXCXCXCXCX"
};
