/* XPM */
static char *_518472026579[] = {
/* columns rows colors chars-per-pixel */
"128 128 62 1 ",
"  c #0F1212",
". c #111312",
"X c #191612",
"o c #1D1913",
"O c #241B13",
"+ c #2C1E14",
"@ c #2F2015",
"# c #352315",
"$ c #3B2515",
"% c #432714",
"& c #442917",
"* c #4B2B15",
"= c #4C2D18",
"- c #532E16",
"; c #582F15",
": c #4E3119",
"> c #5C3115",
", c #563119",
"< c #5A3319",
"1 c #633517",
"2 c #653719",
"3 c #683718",
"4 c #66391B",
"5 c #6C3A19",
"6 c #743E1B",
"7 c #783F1C",
"8 c #64451D",
"9 c #6D441D",
"0 c #76401B",
"q c #7A411C",
"w c #754C1F",
"e c #84461E",
"r c #85491E",
"t c #894C1F",
"y c #8A501F",
"u c #8F4C21",
"i c #904C21",
"p c #8C5220",
"a c #965422",
"s c #985522",
"d c #935A22",
"f c #9B5E23",
"g c #A65F25",
"h c #A95F26",
"j c #956324",
"k c #9D6324",
"l c #A66225",
"z c #AA6526",
"x c #A66825",
"c c #AA6926",
"v c #B16627",
"b c #B06E27",
"n c #B36728",
"m c #B56828",
"M c #B86A29",
"N c #AE7027",
"B c #B17227",
"V c #B57628",
"C c #B87529",
"Z c #B77829",
"A c #B97929",
"S c None",
/* pixels */
"SSSSSSSSSSSSSSSSSSSSSSSSSSSSSSSSSSSSSSSSSSSSSSSSSSSSSSSSSSSSSSSSSSSSSSSSSSSSSSSSSSSSSSSSSSSSSSSSSSSSSSSSSSSSSSSSSSSSSSSSSSSSSSSS",
"SSSSSSSSSSSSSSSSSSSSSSSSSSSSSSSSSSSSSSSSSSSSSSSSSSSSSSSSSSSSSSSSSSSSSSSSSSSSSSSSSSSSSSSSSSSSSSSSSSSSSSSSSSSSSSSSSSSSSSSSSSSSSSSS",
"SSSSSSSSSSSSSSSSSSSSSSSSSSSSSSSSSSSSSSSSSSSSSSSSSSSSSSSSSSSSSSSSSSSSSSSSSSSSSSSSSSSSSSSSSSSSSSSSSSSSSSSSSSSSSSSSSSSSSSSSSSSSSSSS",
"SSSSSSSSSSSSSSSSSSSSSSSSSSSSSSSSSSSSSSSSSSSSSSSSSSSSSSSSSSSSSSSSSSSSSSSSSSSSSSSSSSSSSSSSSSSSSSSSSSSSSSSSSSSSSSSSSSSSSSSSSSSSSSSS",
"SSSSSSSSSSSSSnmmmzSSSSSSSSSSSSSSSSSSSSSSSSSSSSSSSSSSSSSSSSSSSSSSSSSSSSSSSSSSSSSSSSSSSSSSSSSSSSSSSSSSSSSSSSSSSSSSSqq66SSSSSSSSSSS",
"SSSSSSSSSSSSnMMMMMmSSSSSSSSSSSSSSSSSSSSSSSSSSSSSSSSSSSSSSSSSSSSSSSSSSSSSSSSSSSSSSSSSSSSSSSSSSSSSSSSSSSSSSSSSSSS7qqqqqqSSSSSSSSSS",
"SSSSSSSSSSSSmMMMMMMnSSSSSSSSSSSSSSSSSSSSSSSSSSSSSSSSSSSSSSSSSSSSSSSSSSSSSSSSSSSSSSSSSSSSSSSSSSSSSSSSSSSSSSSSSSqqqqqqqqSSSSSSSSSS",
"SSSSSSSSSSSSmMMMMMMMnSSSSSSSSSSSSSSSSSSSSSSSSSSSSSSSSSSSSSSSSSSSSSSSSSSSSSSSSSSSSSSSSSSSSSSSSSSSSSSSSSSSSSSSSqqqqqqqqqSSSSSSSSSS",
"SSSSSSSSSSSSnMMMMMMMMmSSSSSSSSSSSSSSSSSSSSSSSSSSSSSSSSSSSSSSSSSSSSSSSSSSSSSSSSSSSSSSSSSSSSSSSSSSSSSSSSSSSSSSqqqqqqqqqqSSSSSSSSSS",
"SSSSSSSSSSSSmMMMMMMMMMmvSSSSSSSSSSSSSSSSSSSSSSSSSSSSSSSSSSSSSSSSSSSSSSSSSSSSSSSSSSSSSSSSSSSSSSSSSSSSSSSSSSSqqqqqqqqqqqSSSSSSSSSS",
"SSSSSSSSSSSSmMMMMMMMMMMmvSSSSSSSSSSSSSSSSSSSSSSSSSSSSSSSSSSSSSSSSSSSSSSSSSSSSSSSSSSSSSSSSSSSSSSSSSSSSSSSS0qqqqqqqqqqqqSSSSSSSSSS",
"SSSSSSSSSSSSmMMMMMMMMMMMMnSSSSSSSSSSSSSSSSSSSSSSSSSSSSSSSSSSSSSSSSSSSSSSSSSSSSSSSSSSSSSSSSSSSSSSSSSSSSSSqqqqqqqqqqqqqqSSSSSSSSSS",
"SSSSSSSSSSSSmmMMMMMMMMMMMMmSSSSSSSSSSSSSSSSSSSSSSSSSSSSSSSSSSSSSSSSSSSSSSSSSSSSSSSSSSSSSSSSSSSSSSSSSSSSqqqqqqqqqqqqqqqSSSSSSSSSS",
"SSSSSSSSSSSSmMMMMMMMMMMMMMMmSSSSSSSSSSSSSSSSSSSSSSSSSSSSSSSSSSSSSSSSSSSSSSSSSSSSSSSSSSSSSSSSSSSSSSSSSSqqqqqqqqqqqqqqqqSSSSSSSSSS",
"SSSSSSSSSSSSmmMMMMMMMMMMMMMMMvSSSSSSSSSSSSSSSSSSSSSSSSSSSSSSSSSSSSSSSSSSSSSSSSSSSSSSSSSSSSSSSSSSSSSS7qqqqqqqqqqqqqqqqqSSSSSSSSSS",
"SSSSSSSSSSSSmMMMMMMMMMMMMMMMMMnSSSSSSSSSSSSSSSSSSSSSSSSSSSSSSSSSSSSSSSSSSSSSSSSSSSSSSSSSSSSSSSSSSSSqqqqqqqqqqqqqqqqqqqSSSSSSSSSS",
"SSSSSSSSSSSSmMMMMMMMMMMMMMMMMMMnSSSSSSSSSSSSSSSSSSSSSSSSSSSSSSSSSSSSSSSSSSSSSSSSSSSSSSSSSSSSSSSSSSqqqqqqqqqqqqqqqqqqqqSSSSSSSSSS",
"SSSSSSSSSSSSnMMMMMMMMMMMMMMMMMMMnSSSSSSSSSSSSSSSSSSSSSSSSSSSSSSSSSSSSSSSSSSSSSSSSSSSSSSSSSSSSSSSS7qqqqqqqqqqqqqqqqqqqqSSSSSSSSSS",
"SSSSSSSSSSSSmMMMMMMMMMMmMMMMMMMMMMSSSSSSSSSSSSSSSSSSSSSSSSSSSSSSSSSSSSSSSSSSSSSSSSSSSSSSSSSSSSSSqqqqqqqqqeqqqqqqqqqqqqSSSSSSSSSS",
"SSSSSSSSSSSSmMMMMMMMMMMMMMMMMMMMMMMnSSSSSSSSSSSSSSSSSSSSSSSSSSSSSSSSSSSSSSSSSSSSSSSSSSSSSSSSSS77qqqqqqqq77qqqqqqqqqqqqSSSSSSSSSS",
"SSSSSSSSSSSSnMMMMMMMMMMMMMMMMMMMMMMMnSSSSSSSSSSSSSSSSSSSSSSSSSSSSSSSSSSSSSSSSSSSSSSSSSSSSSSSS7qqqqqqqqqqqqqqqqqqqqqqqqSSSSSSSSSS",
"SSSSSSSSSSSSmMMMMMMMMMMMMMMMMMMMMMMMMmSSSSSSSSSSSSSSSSSSSSSSSSSSSSSSSSSSSSSSSSSSSSSSSSSSSSSS7qqqqqqqqqqqqqqqqqqqqqqqqqSSSSSSSSSS",
"SSSSSSSSSSSSmMMMMMMMMMMMMMMMMMMMMMMMMMnSSSSSSSSSSSSSSSSSSSSSSSSSSSSSSSSSSSSSSSSSSSSSSSSSSSSqqqqqqqqqqqqqqqqqqqqqqqqqqqSSSSSSSSSS",
"SSSSSSSSSSSSnMMMMMMMMMMMMMMMMMMMMMMMMMMMSSSSSSSSSSSSSSSSSSSSSSSSSSSSSSSSSSSSSSSSSSSSSSSSSSqqqqqqqqqqqqqqqqqqqqqqqqqqqqSSSSSSSSSS",
"SSSSSSSSSSSSMMMMMMMMMMMMMMMMMMMMMMMMmMMMMnSSSSSSSSSSSSSSSSSSSSSSSSSSSSSSSSSSSSSSSSSSSSSS77qqqqqqqqqqqqqqqqqqqqqqqqqqqqSSSSSSSSSS",
"SSSSSSSSSSSSnMMMMMMMMMMMMMMMMMMMMMMMMMMMMMmSSSSSSSSSSSSSSSSSSSSSSSSSSSSSSSSSSSSSSSSSSSS7qqqqqqqqqqqqqqqqqqqqqqqqqqqqqqSSSSSSSSSS",
"SSSSSSSSSSSSnMMMMMMMMMMMMMMMMMMMMMMMMMMMMMMmSSSSSSSSSSSSSSSSSSSSSSSSSSSSSSSSSSSSSSSSSSqqqqqqqqqqqqqqq7qqqq7eqqqqqqqqqqSSSSSSSSSS",
"SSSSSSSSSSSSmMMMMMMMMMMMMMMMMMMMMMMMMMMMMMMMMSSSSSSSSSSSSSSSSSSSSSSSSSSSSSSSSSSSSSSSS0qqqqqqqqqqqqqqq7eqqqqqqqqqqqqqqqSSSSSSSSSS",
"SSSSSSSSSSSSnMMMMMMMMMMMMMMMMMMMMMMMMMMMMMMMMMvSSSSSSSSSSSSSSSSSSSSSSSSSSSSSSSSSSSSSqqqqqqqqqqqqqqqqqqqqqqqqqqqqqqqq7qSSSSSSSSSS",
"SSSSSSSSSSSSnMMMMMMMMMMMMMMMMMMMMMMMMMMMMMMMMMmnSSSSSSSSSSSSSSSSSSSSSSSSSSSSSSSSSSqqqqqqqqqqqqqqqqqqqqqqqqqqqqqqqqqqeqSSSSSSSSSS",
"SSSSSSSSSSSSnMMMMMMMMMMMMMMMMMMMMMMMMMMMMMMMMMMMmSSSSSSSSSSSSSSSSSSSSSSSSSSSSSSSS6qqqqqqqqqqqqqqqqqqqqqqqqqqqqqqqqqqqqSSSSSSSSSS",
"SSSSSSSSSSSSnMMMMMMMMMMMMMMMMnMMMMMMMMMMMMMMMnnzlgSSSSSSSSSSSSSSSSSSSSSSSSSSSSSS>1356qqqqqqqqqqqqqqqqqqqqqqqqqqqqqqqqqSSSSSSSSSS",
"SSSSSSSSSSSSmMMMMMMMMMMMMMMMMMMMMMMMMMMMMvzzgggfgglSSSSSSSSSSSSSSSSSSSSSSSSSSSS11;;;115567q7qqqqqqqqqqqqqqqqqqqqqqqqqqSSSSSSSSSS",
"SSSSSSSSSSSSmMMMMMMMMMMMMMMMMMMMMMMMmvzzgggggglzbCVfqqagggggggggggggggggggglVAxue7631;;>>1356777qqqqqqqqqqqqqqqqqqqqqqSSSSSSSSSS",
"SSSSSSSSSSSSnMMMMMMMMMMMMMMMMMmmmzzlgggggllcbBVAAAAfqqaggggggggggggggggggggzCAcuiiite7511;;>>115767qqqqqqqqqqqqqqqqqqqSSSSSSSSSS",
"SSSSSSSSSSSSmMMMMMMMMMMMMMMMmvzggggggllcbBVAAAAAAAAfqqaggggggggggggggggggggcAAcuiiitiiuueq611;<;;11357qqqqqqqqqqqqqqqqSSSSSSSSSS",
"SSSSSSSSSSSSmMMMMMMMMMmnvvllggggggzcBBCAAAAAAAAAAAAfqqsggggggggggggggggggggzAAcuiiiiuuuiiiituq621;>;>111567qq7q7qqqqqqSSSSSSSSSS",
"SSSSSSSSSSSSnMMMMMMMnnlgggggggzcbBCAAAAAAAAAAAAAAAAk07sggggggggggggggggggggzAAcutiiiuuuuiiiiiiuuee731>>>;1115777qqq7qqSSSSSSSSSS",
"SSSSSSSSSSSSMMMmvzlgggggggccBVCAAAAAAAAAAAAAAAAAAAAfqqsggggggggggggggggggggzCAcuuuiuuuiuiiiiuuuiiiitre651>>>>>135667qqSSSSSSSSSS",
"SSSSSSSSSSSSzzlgfgggggcbbBCAAAAAAAAAAAAAAAAAAAAAAAAfqqagggggglgggggggggggggzCAcuuuuuuuuiiiituuuuiiiiiiitre751>;;1;1135SSSSSSSSSS",
"SSSSSSSSSSSSggfgllccVVCAAAAAAAAAAAAAAAAAAAAAAAAAAAAf00agggggghgggggggggggggzCAciuiiuuuuuuuuuuuuuiiituuuuuiiuue651>>;;>SSSSSSSSSS",
"SSSSSSSSSSSSglzcVVAAAAAAAAAAAAAAAAAAAAAAAAAAAAAAAAAgqqsgggggggglhggggggggggzAAciuuuuuuuuuuuuiuuuiiiiuiuuuuuuuiiuueq611SSSSSSSSSS",
"SSSSSSSSSSSSBAAAAAAAAAAAAAAAAAAAAAAAAAAAAAAAAAAAAAAfqqsgghgggggglggggghggggzCAciuuuuuuuuiuuuuuuuiiiiuuuuuuuuuuuuiiiuueSSSSSSSSSS",
"SSSSSSSSSSSSVAAAAAAAAAAAAAAAAAAAAAAAAAAAAAAAAAAAAAAfqqalgggggggggggggggggggzCAciuuuuuuiuuuuuuuuuitiiuuuuuuuuuuuuuuuuiiSSSSSSSSSS",
"SSSSSSSSSSSSVAAAAAAAAAAAAAAAAAAAAAAAAAAVAAAAAAAAAAAfq7sgggglgggggggggglggggzCAcuuuiuuuuuuuuuuuuuiiiuuuuuuuuuuiiuuuuuiiSSSSSSSSSS",
"SSSSSSSSSSSSZAAAAAAAAAAAAAAAAAAAAAAAAAAAAAAAAAAAAAAkq7sggggggggggggggggggggzAAluuuuuuuuuiuuuuuuuiiuuuuuuuuuuuuuuuuuiiiSSSSSSSSSS",
"SSSSSSSSSSSSVAAAAAAAAAAAAAAAAAAZAAAAAAAAAAAAAAAAAAAfqqsghgggggggggggghgggggcCAcuuuuuuuiuiuuuuuuitiiuuuuiiuuuuuuuuuuuiiSSSSSSSSSS",
"SSSSSSSSSSSSZAAAAAAAAAAAAAAZAAAAAAAAAAAAAAAAAAAAAAAfqqsgggggghgggggggggggggzAAcuuuuuuuuuipuiuuuuiiiiuuuuuuuuuuuuuuuuiiSSSSSSSSSS",
"SSSSSSSSSSSSVAAAAAAAAAAAAAAAAAAAAAAAAAAAAAAAAAAAAAAg0qslggghggggglhggghggggzCAciuuuuuuuuuuuuuuuuuuuuuuiuuuuuuuuuuiuuuuSSSSSSSSSS",
"SSSSSSSSSSSSVAAAAAAAZAAAAAAAAAAAAAAAAAAAAAAAAAAAAAAf0qsggggggggggggggggglgglCAcuuuuuuuuuiuuuuuuuuuuuuuuuuuuuuuuiuuuuuuSSSSSSSSSS",
"SSSSSSSSSSSSZAAAAAAAAAAAAAAAAAAAAAAAAAAAAAAAAAAAAAAfq7sggggggggggggggggggggvAAcuuiuuiuuuiuuuiuuuuuuiuuuuuuuuuuuuuuuuuiSSSSSSSSSS",
"SSSSSSSSSSSSZZAAAAAAAAAAAAAAAAAAAAAAAAAAAAAAAAAAAAAfq7sggggglggggggggggggggvCAcuuuuuuuuuuuuuuuuuuuuuuuuuiuiuuuuuuuuuuuSSSSSSSSSS",
"SSSSSSSSSSSSZAAAAAAAAAAAAAAAAAAAAAAAAAAAAAAAAAAAAAAf0qshgggggggggggggggggggzAAciiuuuuuuuuuuuuuuuuuuuuuuuuuuuuuuuiuuuuuSSSSSSSSSS",
"SSSSSSSSSSSSZAAAAAAAAAAAAAAAAAZAAAAAAAAAAAAAAAAAAAAfqqsgghgggggggggglggggggzVAciuuuuuuuuuuuuuuuuiuuuiuuuuuuuuuuuuuiuuuSSSSSSSSSS",
"SSSSSSSSSSSSVAAAAAAAAAAAAAAAAAAAAAAAAAAAAAAAAAAAAAAfqqagggggggghggggggghgggzCAcuuuuuiuuuuuuiuuuuiuuuuuuuuuuuuiuuuuuuuuSSSSSSSSSS",
"SSSSSSSSSSSSVAAAAAAAAAAAAAAAAAAAAAAAAAAAAAAAAAAAAAAfq0sglggggggggghggggggggzAAcuuuuuuuuuuuuuuuiuuuuuuuuuuiuuuuuuuuuuuuSSSSSSSSSS",
"SSSSSSSSSSSSZAAAAAAAAAAAAAAAAAAAAAAAAAAAAAAAAAAAAAAk0qsghggggggghgggglgggggzCAciuuuuuuuiuuuuiuuuuuuuuuuuuuuuuuuuuuuiuuSSSSSSSSSS",
"SSSSSSSSSSSSVAAAAAAAAAAAAAAAAAAAAVAAAAAAAAAAAAAAAAAfqqsggggggggggggggggggggzZZciuuuuuiuuuuiuuuuuuuuuuuuuuuuuuuuuuuuuuiSSSSSSSSSS",
"SSSSSSSSSSSSVAAAAAAAAAAAZAAAAAAAAAAAAAAAAAAAVAAAAAAgqqaggggglggggggggggggggzZZcuuuuuuuuuuuuuuuuuuuuiuuiuuuuuuuuuuuuuuuSSSSSSSSSS",
"SSSSSSSSSSSSVAAAAAZAAAAAAAAAAAAAAAAAAAAAAAAAAAAAAAAfq0aggggggggggggggggggggzZZcuiuuuuuuuipuuuuuuuuuuuuuuuuuuuuuuuuuuuuSSSSSSSSSS",
"SSSSSSSSSSSSVAAAAAAAAAAAAAAAAAAAAAAAAAAAAAAAAAAAAAAf0qaggllhhgghgggglgggglgzAAviuuuuiuuuiuuuuuuuuuuuuuuiuuuuuuuuuuuuuuSSSSSSSSSS",
"SSSSSSSSSSSSVAAAAAAAAAAAAAAAAAAAAAAAAAAAAAAAAAAAAAVxpygczzzzczczvcczvvzczzvnZAcuuiuuuuuuiuuuuuiuuuuuuuuuuuuuuuuuuiuuuuSSSSSSSSSS",
"SSSSSSSSSSSSVAAAAAAAAAAAAAAAAAAAAAAAAAAAAAAAAAAAAAAACCACAAVAAAACZZVZAZZZVZZAZZcuuuuuuuuuuiuuuuuuuuiuuuuuuuuuuuiiuuuuuuSSSSSSSSSS",
"SSSSSSSSSSSSVAAAZVNNVZAAAAAAAAAAAAAAAAAAAAAAAAAAAAAAAAAAAAAAAVAAAAAZAAAAZZAAAZcuuuuuuuuuuuuuuuuiuuuuuuuuuuuuuueeuuiiuuSSSSSSSSSS",
"SSSSSSSSSSSSZZBkaweqrxAAAAAAAAAAAAAAAAAAAAAAAAAAAAACMCMMMMCMMMMMMMCMMMMCMMMCMMvuuuuuuuuuuuuuuuiiuuuiuuuuuuuuq1;1137riiSSSSSSSSSS",
"SSSSSSSSSSSSkw:#+@$40exVAAAAAAAAAAAAAAAAAAAAAAAAAAAMMMMMMMMMMMMMMMMMMMMMMMMMMMhuuiuuuuuuuiuuuiuuuiuuuuuuuiiu1;-@OO+$,qSSSSSSSSSS",
"SSSSSSSSSSSS@     .o<qpVAAAAAAAAAAAAAAAAAAAAAAAAAAACMMMMMMMMMMMMMMMMMMMMMMMMMMhuuuuuuuuuuuuiuuuiuuuuuuuuiiu51*o......oSSSSSSSSSS",
"SSSSSSSSSS..  ......o<qkAAAAAAAAAAAAAAAAAAAAAAAAAAACMMMMMMMMMMMMMMMMMMMMMMMMMMhuuuuuiuuuiiuuiuuuuiuuuiuuiiq>*o..........SSSSSSSS",
"SSSSSSSSS............@5uVZAAAAAAAAAAAVAAAAAAAAAAAAACMMMMMMMMMMMMMMMMMMMMMMMMMMhiiuuuuuuuuuuuiuiuuuiuuuuuuu5;+ ...........SSSSSSS",
"SSSSSSSSS.............:qcZAAAAAZAAAAAAAAAAAAAAAAAACCMMMMMMMMMMMMMMMMMMMMMMMMMMhiuuuuuuuuiuiuuuuuuuuuuuuuue;%..............SSSSSS",
"SSSSSSSS............. @5dZAAAAAAAAAAAAAAAAAAAAAAAAACMMMMMMMMMMMMMMMMMMMMMMMMMMhuuuuuuiuuuuuuiiuiuuuuuuuiu6;+..............SSSSSS",
"SSSSSSS ............. .,uVAAAAAAAAAAAAAAAAAAAAAAACCCMMMMMMMMMMMMMMMMMMMMMMMMMMhuuuuuuuuiuiuiuuuuuuuuuuuuu5*................SSSSS",
"SSSSSSS............... #qbZAAAAAAAAAAAAAAAAAAAAAAAACMMMMMMMMMMMMMMMMMMMMMMMMMMhiuuuuuuuuuuuuuuuuuiuuuuuiu<@................SSSSS",
"SSSSSS................ O5kAZAAAAAAAAAAAAAAAAAAAAAAAMMMMMMMnMMMMMMMMMMMMMMMMMMMhiuuuuiuuuuuuuuuuuuuuuuuui7,O................ SSSS",
"SSSSSS..................<dAAAAAAAAAAAAAAAAAAAAAAAAACMMMMMMMMMMMMMMMMMMMMMMMMMMhuiuuuuuuuuuuuuuuuuuuuuuuu6*..................SSSS",
"SSSSSS..................$uVAAAAAAAAAAAAAAAAAAAAAAAACMMMMMMMMMMMMMMMMMMMMMMMMMMhiuuuuuuuuuuuuuuuuuuuuuuuu5$..................SSSS",
"SSSSSS................. @qBAAAAAAAAAAAAAAAAAAAAAAAAMMMMMMMMMMMMMMMMMMMMMMMMMMMhiuuuuuuuuuuuuuuuuuiiuuuiu5+ .................SSSS",
"SSSSSS..................o6NAAAAAAAAAAAAAAAAAAAAAAAACMMMMMMMMMMMMMMMMMMMMMMMMMMhiuiuuiuuuiuuuuuuuuuuuuuiq;O..................SSSS",
"SSSSSS..................X2cAAAAAAAAAAAAAAAAAAAAAAAACMMMMMMMMMMMMMMMMMMMMMMMMMMhiuuuuuuuuiuuuuuuuuuuuuuiu-X..................SSSS",
"SSSSSS...................,kAAAAAVAAAAAAAAAAAAAAAAACCMMMMMMMMMMMMMMMMMMMMMMMMMMhuuuuuuuuuuuuuuuuuuuuuuuiq*...................SSSS",
"SSSSSS.................. &dAAAAAAAAAAAAAAAAAAAAAAACCMMMMMMMMMMMMMMMMMMMMMMMMMMhiiiiuuuuuuuuuuuuuuuuuiii7$...................SSSS",
"SSSSSS.................. $aAAAAAAAAAAAAAAAAAAAAAAAACMMMMMMMMMMMMMMMMmMMMMMMMMMhiiiuuuuuuuuuuuuuuuuuuuii6# ..................SSSS",
"SSSSSSS................. #pVAAAAAAAAAAAAAAAAAAAAAAACMMMMMMMMMMMMMMMMMMMMMMMMMMhiiiiuuuuuuuuuuuuuuuiuuui5+..................SSSSS",
"SSSSSSS................. OqBAAAAAAAAAAAAAAAAAAAAAAAMMMMMMMMMMMMMMMMMMMMMMMMMMMhiiiuuuuiuuuuuuuuuiuuuuui3O..................SSSSS",
"SSSSSSSS.................OwBZZAAAAAAAAAAAAAAAAAAAAACMMMMMMMMMMMMMMMMMMMMMMMMMMhiuuuiuuuuuuuuuuiuuuuuiit1O   ..............SSSSSS",
"SSSSSSSSS............... X0NAZAAAAAAAAAAAAAAAAAAAAACMMMMMMMMMMMMMMMMMMMMMMMMMMhiuuuuuuuuuuuuuuuuuuuuiit>O ...............SSSSSSS",
"SSSSSSSSSS...............X4NAAAAAAAAAAAAAAAVAAAAAAACMMMMMMMmMMMMMMMMMMMMMMMMmMhiuuuuuuiuuuuuuuuuuuuuiit;X...............SSSSSSSS",
"SSSSSSSSSSSXo  ..........X4NAAAAAAAAAAAAAAAAAAAAAAAMMMMMMMMMMMMMMMMMMMMMMMMMMMhiuuuuuuuuuuuuuuuuuiuuiir;X.......... .XXSSSSSSSSS",
"SSSSSSSSSSSSj8$o..   .....4cAAAAAAAAAAAAAAAAAAAAAAACMMMMMMMMMMMMMMMMMMMMMMmMMMhiuuuuuuuuuuiuuuuuuuuuuie-X..... ...XO=6SSSSSSSSSS",
"SSSSSSSSSSSSZANj9:#+XX. ..<xAAAAAAVAAAAAAAAAAAAAAAACMMMMMMMMMMMMMMMmMMMMMMMMMMhiuiuuuuuuuuuuiuuuuuuuuie-.....XO+$:5uuiSSSSSSSSSS",
"SSSSSSSSSSSSZAZZAVkpw5,=$$4xAAAAAAAAAAAAAAAAAAAAAAACMMMMMMMMMMMMMMMMMMMMMMMMMMhiuuuuuiuuuuuuuuuuuuuuiie-@@$%-;57uuuuuuSSSSSSSSSS",
"SSSSSSSSSSSSZAAZAAAAVcxfpprcAAAAAAAAAAAAAAAAAAAAAACCMMMMMMMMMMMMMMMMMMMMMMMMMmhiuuuuuuuuuuuuuuuuuuuiiie11567etiiuuuuuuSSSSSSSSSS",
"SSSSSSSSSSSSVZZAAAAAAAAAAVVVAAAAAAAAAAAAAAAAAAAAAAAMMMMMMMMMMMMMMMMMMMMMMMMMMMhiiuuuuuuuuuuiuuuuuuuuiiuuuuuuuuuuuuuuuuSSSSSSSSSS",
"SSSSSSSSSSSSZZAAAAAAAAAAAAAAAAAAAAAAAAAAAAAAAAAAAAACMMMMMMMMMMMMMMMMMMMMMMMMMMhiuuiuuuuuuiuuuuuiuuuuiiuuuuuuuuuuuuuuuuSSSSSSSSSS",
"SSSSSSSSSSSSZAAAAAAAAAAAAAAAAAAAAAAAAAAAAAAAAAAAAAACMMMMMMMMMMMMMMMMMMMMMMMMMMhiuuuuuuuuuuuuuuuuuuuuuuuuuuuuuuuuuuuuuuSSSSSSSSSS",
"SSSSSSSSSSSSZAAAAAAAAAAAAAAAAAAAAAAAAAAAAAAAAAAAAAAMMMMMMMMMMMMMMMMMmMMMMMMMMMhiuuuuuuuiuuuuuuuuuuuuuuuuuuuuuuuuuuuuuuSSSSSSSSSS",
"SSSSSSSSSSSSZAAAAAAAAAAAAAAAAAAAAVAAAAAAAAAAAAAAAAZCMMMMMMMMMMMMMMMMMMMMMMMMMMguuuuuuuuiuuuuuuuuuuuuuuuuuuuuuuuuuuuuuuSSSSSSSSSS",
"SSSSSSSSSSSSVAAAAAAAAAAAAAAAAAAAAAAAAAAAAAAAAAAAAAZCMMMMMMMMMMMMMMMMMMMMMMMMMMguuuuuuuuuuuuuuuuiuuuuuuuuuuuuuuuuuuiuuuSSSSSSSSSS",
"SSSSSSSSSSSSVAAAAAAAAAAAAAAAAAAAAAAAAAAAAAAAAAAAAAACMMMMMMMMMMMMMMMMMMMMMMMMMMguuuuiuuuuuuuuuuuuuuuuuuuuuuuuuuuuuuuuuuSSSSSSSSSS",
"SSSSSSSSSSSSSZAAAAAAAAAAAAAAAAAAAAAAAAAAAAAAAAAAAAAcgssssssassssssssssssssssssuuuuuuuuuuuiiuuuuuuuuuuuuuuuuuuuuuuuuuuSSSSSSSSSSS",
"SSSSSSSSSSSSSVAAAAAAAAAZAAAAAAAAAAAAAAAAAAZAAAAAAAAf7777777qq77777q7q7q777q700uuiuuuuuuuuuuuuuuuuuuuuuuuuuuuuuuuuuuutSSSSSSSSSSS",
"SSSSSSSSSSSSSSZAAAAAAAAAAAAAAAAAAAAAAAAAAAAAAAAAAAAf77eueerrtetrteeteerrueeuuppuuuuuuiuuuuuuuuuuuuuuuuuuuuuuuuuuuuuuSSSSSSSSSSSS",
"SSSSSSSSSSSSSSVAAAAAAAAAAAAAAAAZAAAAAAAAAAAAAAAAAAAfq7agggggggggggggfgggggglVZcuuiuuuuuuuuuuiuuuuuuuuuuuuuuuuuuuiuuuSSSSSSSSSSSS",
"SSSSSSSSSSSSSSSVAAAAAAAAAAAAAAAAAAAAAAAAAAAAAAAAAAAfq7aggggggggggggggggggggxVAcuuuuuuuuuuuiuuuuuuuuuuuuuuuuuuuuuuuuSSSSSSSSSSSSS",
"SSSSSSSSSSSSSSSSVAAAAAAAAAAAAAAAAAAAAAAAAAAAAAAAAAAkqqaggggggglggggggggggggzCZcuuuuuuuuuuuuuuuuuuuuuuuuuuuuuuuuuuuSSSSSSSSSSSSSS",
"SSSSSSSSSSSSSSSSSVAAAAAAAAAAAAAAAAAAAAAAAAAAAAAAAAAfqqaggggggggggggggggggggzZAcuuuuuuuiuuuuuuuuuuiuuuuuuuuuuuuuuuSSSSSSSSSSSSSSS",
"SSSSSSSSSSSSSSSSSSVVAAAAAAAAAAAAAAAAAAAAAAAAAAAAAAAfqqsgggggghgggggggggggggzCAvuuuuuuuuuuuuuuuuuuuuuuuuuuuuuuuuuSSSSSSSSSSSSSSSS",
"SSSSSSSSSSSSSSSSSSSSVVAAAAAAAAAAAAAAAAAAAAAAAAAAAAAfq7sggggggggggggggggggggzZAciuuuiuuuuuuuuuuiuiuuuuuuuuuuuuuSSSSSSSSSSSSSSSSSS",
"SSSSSSSSSSSSSSSSSSSSSSVAAAAAAZAAAAAAAAAAAAAAAAAAAAAfqqaggggggggggggggggggggzVAcuuuuuuuuiuuuuuuuuuuuuuuuuuuutSSSSSSSSSSSSSSSSSSSS",
"SSSSSSSSSSSSSSSSSSSSSSSSVAAAAAAAAAAAAAAAAAVAAAAAAAAfqqsgggglgggggggggggggggzAAcuuuuuuuuuuuuuuuuuuuiuuuuuuuuSSSSSSSSSSSSSSSSSSSSS",
"SSSSSSSSSSSSSSSSSSSSSSSSSVZAAAAAAAAAAAAAAAAAAAAAAAAfqqagggggggggggggggggglgzAAcuuuiuuuuuuuuuuuuuuuuuuuuuuSSSSSSSSSSSSSSSSSSSSSSS",
"SSSSSSSSSSSSSSSSSSSSSSSSSSSVVAAAAAAAAAAAAAAAAAAAAAAkqqalggggghgggglggggggggzAAcuiuuuuuuuuuuuuuuuuuuuuuuSSSSSSSSSSSSSSSSSSSSSSSSS",
"SSSSSSSSSSSSSSSSSSSSSSSSSSSSSVAAAAAAAAAAAAAAAAAAAAAfqqsgggggglggggggggghgggzAAziuuuuuuuuuuiuuuuuuuuuuSSSSSSSSSSSSSSSSSSSSSSSSSSS",
"SSSSSSSSSSSSSSSSSSSSSSSSSSSSSSSZAAAAAAAAAAAAAAAAAAAfqqagggghgggggggggggggggzAAciiuuuuuuuuuuuuuuuuuuSSSSSSSSSSSSSSSSSSSSSSSSSSSSS",
"SSSSSSSSSSSSSSSSSSSSSSSSSSSSSSSSVVAAAAAAAAAAAAAAAAAfqqaggggggghgggggggglgggzCAciuuuuuiuuuuuuuuuuuuSSSSSSSSSSSSSSSSSSSSSSSSSSSSSS",
"SSSSSSSSSSSSSSSSSSSSSSSSSSSSSSSSSSVVAAAAAAAAAAAAAAAfqqsggggggggggghggggggggzCAciuuuuuuuuuuuuuuuuSSSSSSSSSSSSSSSSSSSSSSSSSSSSSSSS",
"SSSSSSSSSSSSSSSSSSSSSSSSSSSSSSSSSSSSVAAAAAAAAAAAAAAfqqagggghggggglgggghggggvAAciuuuuuuuuuiuuuuSSSSSSSSSSSSSSSSSSSSSSSSSSSSSSSSSS",
"SSSSSSSSSSSSSSSSSSSSSSSSSSSSSSSSSSSSSSVAAAAAAAAAAAAfqqaggggggggggghgggggggglCAcuuuuuuuuuuuuuSSSSSSSSSSSSSSSSSSSSSSSSSSSSSSSSSSSS",
"SSSSSSSSSSSSSSSSSSSSSSSSSSSSSSSSSSSSSSSSVAAAAAAAAAAkqqagggglggghggggggggggglAAcuuuuuuuuuuuuSSSSSSSSSSSSSSSSSSSSSSSSSSSSSSSSSSSSS",
"SSSSSSSSSSSSSSSSSSSSSSSSSSSSSSSSSSSSSSSSSVVAAAAAAAAfqqahgggggggggggggggggggcAAcuuuuuuuuuuSSSSSSSSSSSSSSSSSSSSSSSSSSSSSSSSSSSSSSS",
"SSSSSSSSSSSSSSSSSSSSSSSSSSSSSSSSSSSSSSSSSSSVAAAAAAAkqqagggggggggglgggggggggzCAciuuuuuuuSSSSSSSSSSSSSSSSSSSSSSSSSSSSSSSSSSSSSSSSS",
"SSSSSSSSSSSSSSSSSSSSSSSSSSSSSSSSSSSSSSSSSSSSSVAAAAAfqqaggggggggggggggggggggzAAcuuuuuuSSSSSSSSSSSSSSSSSSSSSSSSSSSSSSSSSSSSSSSSSSS",
"SSSSSSSSSSSSSSSSSSSSSSSSSSSSSSSSSSSSSSSSSSSSSSSVAAAfqqagggggggggggggggggggglVAcuuuuuSSSSSSSSSSSSSSSSSSSSSSSSSSSSSSSSSSSSSSSSSSSS",
"SSSSSSSSSSSSSSSSSSSSSSSSSSSSSSSSSSSSSSSSSSSSSSSSVAAfqqsggggggglggggggggggggvAAzuuuSSSSSSSSSSSSSSSSSSSSSSSSSSSSSSSSSSSSSSSSSSSSSS",
"SSSSSSSSSSSSSSSSSSSSSSSSSSSSSSSSSSSSSSSSSSSSSSSSSSVf7qaggggggggggggggggggggcVAcuSSSSSSSSSSSSSSSSSSSSSSSSSSSSSSSSSSSSSSSSSSSSSSSS",
"SSSSSSSSSSSSSSSSSSSSSSSSSSSSSSSSSSSSSSSSSSSSSSSSSSSSSSSSSSSSSSSSSSSSSSSSSSSSSSSSSSSSSSSSSSSSSSSSSSSSSSSSSSSSSSSSSSSSSSSSSSSSSSSS",
"SSSSSSSSSSSSSSSSSSSSSSSSSSSSSSSSSSSSSSSSSSSSSSSSSSSSSSSSSSSSSSSSSSSSSSSSSSSSSSSSSSSSSSSSSSSSSSSSSSSSSSSSSSSSSSSSSSSSSSSSSSSSSSSS",
"SSSSSSSSSSSSSSSSSSSSSSSSSSSSSSSSSSSSSSSSSSSSSSSSSSSSSSSSSSSSSSSSSSSSSSSSSSSSSSSSSSSSSSSSSSSSSSSSSSSSSSSSSSSSSSSSSSSSSSSSSSSSSSSS"
};
